# xmcd
#
# Track frame offsets:
#	150
#	18680
#	27845
#	39228
#	55015
#	66241
#	80397
#	93246
#	109623
#	123291
#	142044
#	159364
#	188049
#	210398
#	227908
#	242352
#	257922
#	277688
#	298524
#	309211
#
# Disc length: 4341 seconds
#
# Revision: 0
# Processed by: cddbd v1.5.1PL0 Copyright (c) Steve Scherf et al.
# Submitted via: dBpowerAMP V4.0
#
DISCID=0110f314
DTITLE=Gram Parsons - Warm Evenings, Pale Mornings, Bottled Blues
DYEAR=1900
DGENRE=Country
TTITLE0=01_Zah's Blues
TTITLE1=02_Blue Eyes
TTITLE2=03_Strong Boy
TTITLE3=04_Truck Drivin Man
TTITLE4=05_Hickory Wind 
TTITLE5=07_Reputation
TTITLE6=08_One Hundred Years From Now
TTITLE7=09_Hot Burrito
TTITLE8=10_Christine's Tune (Devil In Disguise)
TTITLE9=11_Sin City
TTITLE10=12_The Dark End Of The Street
TTITLE11=13_Wild Horses
TTITLE12=14_She
TTITLE13=15_The New Soft Shoe
TTITLE14=16_We'll Sweep Out The Ashes In The Morning
TTITLE15=17_Brass Buttons
TTITLE16=18_Return Of The Grievous Angel
TTITLE17=19_Drug Store Truck Driving Man
TTITLE18=20_Brand New Heartache
TTITLE19=21_Love Hurts
EXTD=
EXTT0=
EXTT1=
EXTT2=
EXTT3=
EXTT4=
EXTT5=
EXTT6=
EXTT7=
EXTT8=
EXTT9=
EXTT10=
EXTT11=
EXTT12=
EXTT13=
EXTT14=
EXTT15=
EXTT16=
EXTT17=
EXTT18=
EXTT19=
PLAYORDER=
